<svg xmlns="http://www.w3.org/2000/svg" xmlns:xlink="http://www.w3.org/1999/xlink" fill="none" version="1.1" width="16" height="16" viewBox="0 0 16 16"><defs><clipPath id="master_svg0_5146_139074"><rect x="0" y="0" width="16" height="16" rx="0"/></clipPath></defs><g clip-path="url(#master_svg0_5146_139074)"><g><path d="M12.01479246875,8.98540254375C11.66879276875,8.45240214375,11.15829276875,8.09790274375,10.48379326875,7.92240234375L10.48379326875,7.88840194375C10.84129336875,7.71840194375,11.14179376875,7.52840184375,11.38529296875,7.31840184375C11.62929346875,7.11990214375,11.81629276875,6.90990254375,11.94679356875,6.68890234375C12.20179366875,6.22390224375,12.32379336875,5.73640224375,12.31229396875,5.2259023437500005C12.31229396875,4.227902443750001,12.00329396875,3.4254025437499998,11.38529486875,2.81840241375C10.77279476875,2.21740234375,9.85679486875,1.91140243475,8.63779446875,1.89990234375L3.36279296875,1.89990234375L3.36279296875,14.30190134375L9.054792868749999,14.30190134375C10.03029296875,14.30190134375,10.84379336875,13.97590134375,11.49629306875,13.32340134375C12.15429396875,12.69940234375,12.48879336875,11.85190204375,12.49979306875,10.78040124375C12.49979306875,10.13390164375,12.33829306875,9.53540134375,12.01479246875,8.98540254375ZM5.3797929687499995,3.57540254375L8.42529296875,3.57540254375C9.11129236875,3.5869023437500003,9.61629246875,3.7539025437499998,9.93929246875,4.07740254375C10.268292868749999,4.42340254375,10.43279216875,4.84590264375,10.43279216875,5.34490254375C10.43279216875,5.84390284375,10.268292868749999,6.25790264375,9.93929246875,6.58690264375C9.61629246875,6.94390294375,9.11129236875,7.12290284375,8.425291968749999,7.12290284375L5.3797929687499995,7.12290284375L5.3797929687499995,3.57540254375ZM10.13529296875,11.95440234375C9.81229306875,12.32290134375,9.301793068750001,12.51290134375,8.60429236875,12.52440134375L5.3797929687499995,12.52440134375L5.3797929687499995,8.79890254375L8.60379316875,8.79890254375C9.301293368749999,8.80990214375,9.81179286875,8.994401943749999,10.13479276875,9.35190154375C10.457793268749999,9.714902443749999,10.61979296875,10.15140244375,10.61979296875,10.66190144375C10.61979296875,11.16040134375,10.458292468749999,11.59140114375,10.13529296875,11.95440234375Z" fill="#000000" fill-opacity="1" style="mix-blend-mode:passthrough"/></g></g></svg>