<svg xmlns="http://www.w3.org/2000/svg" xmlns:xlink="http://www.w3.org/1999/xlink" fill="none" version="1.1" width="16" height="16" viewBox="0 0 16 16"><g transform="matrix(-1,0,0,1,32,0)"><g><rect x="16" y="0" width="16" height="16" rx="0" fill="#D8D8D8" fill-opacity="0"/></g><g><path d="M21.21485549,6.20300207C21.47528636,5.956938956,21.88281816,5.934569582,22.1699947,6.13589394L22.2522695,6.20300207L24.4994397,8.3264129L26.7477303,6.20300207C27.0081615,5.956938956,27.4156933,5.934569582,27.7028699,6.13589394L27.7851443,6.20300207C28.0455756,6.44906518,28.0692511,6.83411378,27.8561711,7.1054469000000005L27.7851443,7.1831827L25.0187068,9.796998C24.7582762,10.0430613,24.3507442,10.0654306,24.0635679,9.8641059L23.981293,9.796998L21.21485549,7.1831827C20.928381503,6.91251332,20.928381503,6.4736715,21.21485549,6.20300207Z" fill="#8D8D99" fill-opacity="1"/></g></g></svg>