<svg xmlns="http://www.w3.org/2000/svg" xmlns:xlink="http://www.w3.org/1999/xlink" fill="none" version="1.1" width="16" height="16" viewBox="0 0 16 16"><defs><clipPath id="master_svg0_5146_144076"><rect x="0" y="0" width="16" height="16" rx="0"/></clipPath></defs><g clip-path="url(#master_svg0_5146_144076)"><g><path d="M7.393801653125,12.43413709375Q6.379261453125,12.13424909375,5.594230653125,11.55060909375L2.4713233531250003,14.67351709375C2.210973443125,14.93386609375,1.788863513125,14.93386609375,1.528513913125,14.67351709375C1.268164635125,14.41316809375,1.268164322125,13.99105609375,1.5285142331250001,13.73070809375L4.633095453125,10.62612629375Q4.294058353125,10.20760729375,4.021692253125,9.70665649375Q2.900517653125,7.64452929375,3.565869853125,5.39359669375Q4.231220953125,3.1426658937500003,6.293347353125,2.0214900937499998Q8.355471653125,0.9003143337499999,10.606406253125,1.56566682375Q12.857337953125,2.23101872375,13.978513953125,4.29314489375Q15.099688953125,6.35526849375,14.434339953125,8.60620399375C14.329968953125,8.959291493750001,13.959126953125,9.16091729375,13.606038953125,9.05654909375C13.252951953125,8.95218039375,13.051325953125,8.58133789375,13.155692953125,8.228249993750001Q13.664492953125,6.50694659375,12.807123953125,4.93002839375Q11.949754953125,3.35310889375,10.228452653125,2.84431019375Q8.507149653125001,2.33551149375,6.930230653125,3.19288059375Q5.353311053125,4.05025099375,4.844512953125,5.77155019375Q4.335713853125,7.49285269375,5.193083253125,9.06977419375Q6.050452253125,10.64669229375,7.771754753125,11.15549279375C8.124842653125,11.25985999375,8.326468453124999,11.63070309375,8.222099353125,11.98378909375C8.117730653125001,12.33687809375,7.746888653125,12.53850509375,7.393801653125,12.43413709375ZM13.023910953125,11.08895299375C12.972365953125,11.06862259375,12.931563953125,11.02782249375,12.911235953125,10.97627829375L12.186349953125,9.13830279375C12.119763953125,8.96947189375,11.880828953125,8.96947239375,11.814241953125,9.13830279375L11.089357353125,10.97627829375C11.069026953125,11.02782249375,11.028226853125,11.06862259375,10.976682653125,11.08895299375L9.138706253125001,11.81383909375C8.969876753125,11.88042409375,8.969876753125,12.11936009375,9.138706253125001,12.18594609375L10.976682653125,12.91083009375C11.028226853125,12.93116009375,11.069026953125,12.97196209375,11.089357353125,13.02350609375L11.814241953125,14.86148309375C11.880828953125,15.03031109375,12.119763953125,15.03031109375,12.186349953125,14.86148309375L12.911235953125,13.02350609375C12.931563953125,12.97196209375,12.972365953125,12.93116009375,13.023910953125,12.91083009375L14.861886953125,12.18594609375C15.030715953125,12.11936009375,15.030715953125,11.88042409375,14.861886953125,11.81383909375L13.023910953125,11.08895299375Z" fill-rule="evenodd" fill="#17171D" fill-opacity="1"/></g></g></svg>