<svg xmlns="http://www.w3.org/2000/svg" xmlns:xlink="http://www.w3.org/1999/xlink" fill="none" version="1.1" width="16" height="16" viewBox="0 0 16 16"><defs><clipPath id="master_svg0_5146_139077"><rect x="0" y="0" width="16" height="16" rx="0"/></clipPath></defs><g clip-path="url(#master_svg0_5146_139077)"><g><path d="M12,1.34033203125L7.5,1.34033203125C7.2239532,1.34046676636,7.0002441,1.56428482125,7.0002441,1.84033188125C7.0002441,2.11637908125,7.2239532,2.34019726125,7.5,2.34033203125L9.0050001,2.34033203125L5.4059997,13.34033203125L4,13.34033203125C3.72385772,13.34033203125,3.5,13.56418903125,3.5,13.84033203125C3.5,14.11647403125,3.72385772,14.34033203125,4,14.34033203125L8.5,14.34033203125C8.7761426,14.34033203125,9,14.11647403125,9,13.84033203125C9,13.56418903125,8.7761426,13.34033203125,8.5,13.34033203125L7.0354998,13.34033203125L10.6374998,2.34033253125L12,2.34033253125C12.2760468,2.34019756125,12.4997559,2.11637938125,12.4997559,1.84033233125C12.4997559,1.56428528125,12.2760468,1.34046722412,12,1.34033203125Z" fill="#000000" fill-opacity="1" style="mix-blend-mode:passthrough"/></g></g></svg>