<svg xmlns="http://www.w3.org/2000/svg" xmlns:xlink="http://www.w3.org/1999/xlink" fill="none" version="1.1" width="16.1181640625" height="16.3505859375" viewBox="0 0 16.1181640625 16.3505859375"><g><g transform="matrix(0.7071067690849304,0.7071067690849304,-0.7071067690849304,0.7071067690849304,5.986299679498188,-6.546932054625358)"><path d="M11.56266278375,3.95263671875L14.22932959375,3.95263671875C14.59751939375,3.95263671875,14.89599609375,4.25111353875,14.89599609375,4.61930340875C14.89599609375,4.9874933187499995,14.59751939375,5.28597011875,14.22932959375,5.28597011875L11.56266278375,5.28597011875C11.19447291375,5.28597011875,10.89599609375,4.9874933187499995,10.89599609375,4.61930340875C10.89599609375,4.25111353875,11.19447291375,3.95263671875,11.56266278375,3.95263671875Z" fill-rule="evenodd" fill="#17171D" fill-opacity="1"/></g><g transform="matrix(0.7071067094802856,-0.7071067690849304,0.7071067690849304,0.7071067690849304,-8.592149600794073,4.414918622176629)"><path d="M1.251422045,14.7524747625L3.070001125,13.0992215325Q3.642133425,12.5791015625,4.415346425,12.5791015625L15.033206125,12.579101641972862Q15.861635125,12.579101641972862,16.447420125,13.1648883225Q17.033207125,13.750674762500001,17.033207125,14.5791020625L17.033207125,15.9124348625Q17.033207125,16.7408618625,16.447420125,17.3266482625Q15.861635125,17.912435062500002,15.033206125,17.912435062500002L4.415347125,17.912435062500002Q3.642133725,17.912435062500002,3.070002125,17.3923168625L1.251422045,15.7390615625C1.120592564,15.620125762499999,1.0423685713,15.4540893625,1.03395847487,15.2774784625C1.0255483775,15.1008674625,1.087641202,14.9281492625,1.206577245,14.7973196625C1.220805585,14.7816684625,1.235770765,14.7667033625,1.251422045,14.7524747625ZM3.966897225,16.4057288625L2.690941725,15.2457685625L3.966898225,14.0858082625Q4.157609025,13.9124349625,4.415346425,13.9124349625L15.033206125,13.9124349625Q15.309349125,13.9124349625,15.504611125,14.1076968625Q15.699873125,14.3029591625,15.699873125,14.5791020625L15.699873125,15.9124348625Q15.699873125,16.1885771625,15.504611125,16.3838398625Q15.309349125,16.5791015625,15.033206125,16.5791015625L4.415347125,16.5791015625Q4.157608225000001,16.5791015625,3.966897225,16.4057288625Z" fill-rule="evenodd" fill="#17171D" fill-opacity="1"/></g><g><path d="M1.77323130125,3.85500573125C1.63353228525,3.90095023125,1.63353222625,4.09856823125,1.77323127125,4.1445126312500005L2.97427263125,4.539512831250001C3.20412823125,4.61510823125,3.38441073125,4.79539083125,3.46000583125,5.02524643125L3.85500573125,6.22628693125C3.90095043125,6.36598583125,4.0985684312499995,6.36598583125,4.1445126312500005,6.22628693125L4.53951263125,5.02524643125C4.61510803125,4.79539063125,4.79539063125,4.61510803125,5.02524663125,4.53951263125L6.22628733125,4.1445126312500005C6.36598633125,4.09856823125,6.36598633125,3.90095023125,6.22628733125,3.85500573125L5.02524663125,3.46000603125C4.79539063125,3.3844106312499997,4.61510803125,3.20412803125,4.53951263125,2.97427223125L4.1445126312500005,1.77323127125C4.0985684312499995,1.63353222625,3.90095043125,1.63353228525,3.85500573125,1.77323133125L3.46000613125,2.9742721312500002C3.38441073125,3.20412793125,3.20412803125,3.3844106312499997,2.97427233125,3.46000603125L1.77323130125,3.85500573125Z" fill="#17171D" fill-opacity="1"/></g><g><path d="M1.106727405,7.855168525C0.967028398,7.901112915,0.967028379,8.098731025,1.106727365,8.144675525L1.304418415,8.209692325C1.534274045,8.285287625,1.714556635,8.465570225,1.790151835,8.695425825000001L1.855168585,8.893116425C1.901112975,9.032815424999999,2.098731125,9.032815724999999,2.1446755250000002,8.893116725L2.209692225,8.695425825000001C2.285287525,8.465570225,2.465570225,8.285287425,2.6954260249999997,8.209692225L2.893116725,8.144675525C3.032815725,8.098731025,3.032815725,7.901112915,2.893116725,7.855168525L2.6954260249999997,7.790151775C2.465570225,7.714556575,2.285287525,7.534273925,2.209692225,7.304418085L2.1446755250000002,7.106727405C2.098731125,6.967028379,1.901112975,6.967028379,1.855168585,7.106727405L1.790151835,7.304418085C1.714556575,7.534273925,1.5342738649999998,7.714556575,1.304418085,7.790151775L1.106727405,7.855168525Z" fill="#17171D" fill-opacity="1"/></g></g></svg>