<svg xmlns="http://www.w3.org/2000/svg" xmlns:xlink="http://www.w3.org/1999/xlink" fill="none" version="1.1" width="16" height="16" viewBox="0 0 16 16"><defs><clipPath id="master_svg0_5146_139080"><rect x="0" y="0" width="16" height="16" rx="0"/></clipPath></defs><g clip-path="url(#master_svg0_5146_139080)"><g><path d="M8,12.67640234375C10.6923876,12.67640234375,12.875,10.49379154375,12.875,7.80140254375L12.875,1.39990234375L11.125,1.39990234375L11.125,7.80140254375C11.125,9.52729224375,9.7258897,10.92640204375,8,10.92640204375C6.2741098,10.92640204375,4.8749994999999995,9.52729224375,4.875,7.80140254375L4.875,1.39990234375L3.125,1.39990234375L3.125,7.80140254375C3.1249995999999998,10.49379154375,5.307611,12.67640234375,8,12.67640234375ZM13.5,13.84040234375L2.5,13.84040234375C2.22385757,13.84040234375,2,14.06425934375,2,14.34040234375C2,14.61654434375,2.22385757,14.84040234375,2.5,14.84040234375L13.5,14.84040234375C13.776142,14.84040234375,14,14.61654434375,14,14.34040234375C14,14.06425934375,13.776142,13.84040234375,13.5,13.84040234375Z" fill="#17171D" fill-opacity="1"/></g></g></svg>